<svg width="24" height="25" viewBox="0 0 24 25" fill="none" xmlns="http://www.w3.org/2000/svg">
<g clip-path="url(#clip0_1472_38)">
<path d="M9.7627 0.366211C14.9523 0.366211 19.1592 4.5731 19.1592 9.7627C19.1592 14.9523 14.9523 19.1592 9.7627 19.1592C4.5731 19.1592 0.366211 14.9523 0.366211 9.7627C0.36622 4.5731 4.5731 0.36622 9.7627 0.366211Z" fill="white" stroke="white" stroke-width="0.732203"/>
<path d="M9.56836 12.0935C8.93629 10.5392 10.4882 8.99103 12.041 9.62674L20.5361 13.1062C22.0298 13.718 22.1231 15.7977 20.6904 16.5408L18.2998 17.7801C18.0127 17.9289 17.7795 18.1641 17.6318 18.4519L16.4609 20.7332C15.7214 22.1746 13.6308 22.0825 13.0205 20.5818L9.56836 12.0935Z" fill="black" stroke="white" stroke-width="0.732203"/>
</g>
<defs>
<clipPath id="clip0_1472_38">
<rect width="24" height="24.0814" fill="white"/>
</clipPath>
</defs>
</svg>
